# xmcd CD database file
#
# Track frame offsets:
#	150
#	10565
#	25622
#	36265
#	51945
#	64715
#	77882
#	92477
#	107610
#	125137
#	136442
#	149407
#	164047
#	174605
#	184482
#	198505
#
# Disc length: 2810 seconds
#
# Revision: 6
# Processed by: cddbd v1.5.2PL0 Copyright (c) Steve Scherf et al.
# Submitted via: CDex 1.51
#
DISCID=e40af810
DTITLE=Kenny Rogers - Country Legend
DYEAR=2001
DGENRE=Country
TTITLE0=Ticket To Nowhere
TTITLE1=Conditions
TTITLE2=She Even Woke Me Up To Say Goodbye
TTITLE3=My Washington Woman
TTITLE4=Run Trough Your Mind
TTITLE5=Sleep Comes Easy
TTITLE6=After All  (I Live My Life)
TTITLE7=For The Good Times
TTITLE8=Something's Burning
TTITLE9=Hurry Up, Love
TTITLE10=Ruby Don't Take Your Love To Town
TTITLE11=Head The Call
TTITLE12=We All Got To Help Each Other
TTITLE13=Where Does Rosy Go
TTITLE14=Sunshine
TTITLE15=Reuben James
EXTD=YEAR: 2001
EXTT0=
EXTT1=
EXTT2=
EXTT3=
EXTT4=
EXTT5=
EXTT6=
EXTT7=
EXTT8=
EXTT9=
EXTT10=
EXTT11=
EXTT12=
EXTT13=
EXTT14=
EXTT15=
PLAYORDER=
